# xmcd
#
# Track frame offsets:
#	150
#	14661
#	28838
#	43684
#	58087
#	71828
#	86285
#	100999
#	115254
#	127699
#	141866
#	155675
#	170433
#	184462
#	198248
#	211502
#	226204
#	240178
#	254565
#	269488
#
# Disc length: 3776 seconds
#
# Revision: 0
# Processed by: cddbd v1.5.2PL0 Copyright (c) Steve Scherf et al.
# Submitted via: EasyCDDAExtractor 16.0.6.1
#
DISCID=1a0ebe14
DTITLE=Συλλογικός δίσκος - Τα ρεμπέτικα Β 1922-1937 10 Β
DYEAR=2010
DGENRE=Ρεμπέτικη
TTITLE0=Εσκενάζυ Ρόζα - Μάς κυνηγούν τον ναργιλέ [ζεϊμπ., Ρ. Εσκενάζυ, Αθήνα 1
TTITLE0=935]
TTITLE1=Βαμβακάρης Μάρκος - Ο Μάρκος υπουργός [ζεϊμπ., Μ. Βαμβακάρης, Αθήνα 19
TTITLE1=35 ή 36]
TTITLE2=Μπάτης Γιώργος - Ο φασουλάς [χασάπ., Γ. Μπάτης, Αθήνα 4.1936]
TTITLE3=Ρούκουνας Κώστας ή Σαμιωτάκης - Στο Βοτανικό [ζεϊμπ., Κ. Ρούκουνας, Αθ
TTITLE3=ήνα 1935]
TTITLE4=Περπινιάδης Στελλάκης - Αγιοθοδωρίτισσα συρτός, Β. Παπάζογλου, Αθήνα 1
TTITLE4=935]
TTITLE5=Αμπατζή Ρίτα - Βρε μάγκες δυό στη φυλακή [ζεϊμπ., Αθήνα 13.12.1934]
TTITLE6=Βαμβακάρης Μάρκος - Κάφ' τονε Σταύρο, κάφ' τονε [ζεϊμπ., απτάλ.,Μ.Βαμβ
TTITLE6=ακάρης,Αθ.1935]
TTITLE7=Ρούκουνας Κώστας ή Σαμιωτάκης - Ο Πίκινος [ζεϊμπ., Κ. Ρούκουνας, Αθήνα
TTITLE7=1935]
TTITLE8=Γκόγκος Δημήτρης ή Μπαγιαντέρας - Καπνουλούδες [χασάπ., Δ. Γκόγκος, Αθ
TTITLE8=ήνα 1934]
TTITLE9=Περπινιάδης Στελλάκης - Ο λαθρέμπορας [ζεϊμπ., Β. Παπάζογλου, Αθήνα 19
TTITLE9=35]
TTITLE10=Ρούκουνας Κώστας ή Σαμιωτάκης - Ο κατάδικος [ζεϊμπ., απτάλ., Κ. Ρούκο
TTITLE10=υνας, Αθήνα 1935]
TTITLE11=Αμπατζή Ρίτα - Ο ξεμάγκας [ζεϊμπ., Β. Παπάζογλου, Αθήνα 20.9.1935]
TTITLE12=Παγιουμτζής Στράτος - Οι σφουγγαράδες [ζεϊμπ., Γ. Μπάτης, Αθήνα 1935]
TTITLE13=Ρούκουνας Κώστας ή Σαμιωτάκης - Είμ' ορφανός [Κ. Ρούκουνας, Αθήνα 193
TTITLE13=5]
TTITLE14=Περπινιάδης Στελλάκης - Σαν φουμάρω τσιγαρλίκι [ζεϊμπ., Β. Παπάζογλου
TTITLE14=, Αθήνα 1935]
TTITLE15=Ασίκης Γρηγόρης - Ο μελλοθάνατος [Γ. Ασίκης, Αθήνα 1935]
TTITLE16=Παπασιδέρης Γιώργος - Μέσ' στον τεκέ της Μαριγώς [ζεϊμπ., Σ.Περιστέρη
TTITLE16=ς-Κ.Μακρής,Αθ.1935]
TTITLE17=Βαμβακάρης Μάρκος-Παγιουμτζής Στράτος - Τα καραβοτσακίσματα [χασάπ., 
TTITLE17=Μ. Βαμβακάρης, Αθήνα 1936]
TTITLE18=Εσκενάζυ Ρόζα - Δίχως κάλτσες περπατούν [τσιφτ., Δ. Σέμσης-Γ. Ασίκης,
TTITLE18=Αθήνα 7.1934]
TTITLE19=Παπάζογλου Βαγγέλης-Περπινιάδης Στελλάκης - Η φωνή του αργιλέ [καρσιλ
TTITLE19=, Β. Παπάζογλου, Αθήνα 1935]
EXTD=
EXTT0=
EXTT1=
EXTT2=
EXTT3=
EXTT4=
EXTT5=
EXTT6=
EXTT7=
EXTT8=
EXTT9=
EXTT10=
EXTT11=
EXTT12=
EXTT13=
EXTT14=
EXTT15=
EXTT16=
EXTT17=
EXTT18=
EXTT19=
PLAYORDER=
